<?xml version="1.0" encoding="utf-8"?>
<!-- Generator: Adobe Illustrator 26.0.3, SVG Export Plug-In . SVG Version: 6.00 Build 0)  -->
<svg version="1.1" id="Camada_1" xmlns="http://www.w3.org/2000/svg" xmlns:xlink="http://www.w3.org/1999/xlink" x="0px" y="0px"
	 viewBox="0 0 1024 512" style="enable-background:new 0 0 1024 512;" xml:space="preserve">
<style type="text/css">
	.st0{fill:#CE2A28;}
	.st1{fill:#F6F6F6;}
</style>
<path class="st0" d="M994.25,512H29.75C13.32,512,0,498.68,0,482.25V29.75C0,13.32,13.32,0,29.75,0h964.51
	c16.43,0,29.75,13.32,29.75,29.75v452.51C1024,498.68,1010.68,512,994.25,512z"/>
<g>
	<path class="st1" d="M425.95,320.19v72.45h-33.7v-63.3c0-17.81-6.5-25.03-17.57-25.03c-11.79,0-20.22,8.42-20.22,26v62.34h-33.7
		v-63.3c0-18.05-6.26-25.03-17.33-25.03c-12.28,0-20.46,8.67-20.46,26v62.34h-33.7v-116.5h30.81l1.2,14.2h0.96
		c6.98-10.59,20.46-17.09,34.42-17.09c13.96,0,24.79,6.26,31.29,18.53h0.96c8.18-11.31,22.14-18.53,37.79-18.53
		C410.55,273.26,425.95,289.39,425.95,320.19z"/>
	<path class="st1" d="M449.78,335.12c0-35.62,25.27-60.65,59.93-60.65c34.66,0,59.93,25.03,59.93,60.65s-25.27,60.41-59.93,60.41
		C475.05,395.53,449.78,370.74,449.78,335.12z M540.28,335.12c0-21.42-12.76-34.9-30.57-34.9c-17.81,0-30.57,13.48-30.57,34.9
		c0,21.18,12.76,34.9,30.57,34.9C527.52,370.02,540.28,356.3,540.28,335.12z"/>
	<path class="st1" d="M713.57,335.12c0,36.1-23.35,60.41-52.95,60.41c-15.89,0-29.85-6.98-36.1-17.57h-0.72l-1.44,14.68h-26.24
		V224.16h28.88v67.15h0.72c6.02-9.87,19.26-16.85,34.9-16.85C690.22,274.46,713.57,298.77,713.57,335.12z M684.2,335.12
		c0-21.9-12.52-34.9-30.09-34.9c-18.05,0-30.09,13-30.09,34.9c0,21.66,12.03,34.66,30.09,34.66
		C671.69,369.78,684.2,356.78,684.2,335.12z"/>
	<path class="st1" d="M740.28,392.64V224.16h28.88v168.48H740.28z"/>
	<path class="st1" d="M797.8,241.49c0-10.35,8.42-18.29,18.77-18.29c10.11,0,18.53,7.94,18.53,18.29c0,10.59-8.42,18.29-18.53,18.29
		C806.23,259.78,797.8,252.08,797.8,241.49z M802.14,392.64V277.35h28.88v115.29H802.14z"/>
	<path class="st1" d="M929.94,369.3v24.31c-4.09,1.2-9.87,1.93-17.09,1.93c-28.88,0-42.6-13-42.6-44.53v-48.38h-19.26v-25.27h19.26
		v-27.92h28.88v27.92h30.09v25.27h-30.09v46.69c0,16.13,5.29,20.94,20.46,20.94C922.96,370.26,926.81,370.02,929.94,369.3z"/>
</g>
<g>
	<path class="st1" d="M874.5,437.46v21.29h-1.18l-0.07-7.33h-0.07c-2.21,5.25-7.05,8.16-13.21,8.16c-6.91,0-10.79-3.67-10.79-8.85
		c0-5.12,3.8-8.02,10.37-8.85l10.09-1.31c2.9-0.35,3.59-0.83,3.59-3.11c0-6.78-3.66-10.03-10.16-10.03
		c-6.36,0-10.65,3.11-11.75,8.43l-1.25-0.14c1.11-5.81,6.02-9.47,13-9.47C870.28,426.25,874.5,430.13,874.5,437.46z M873.25,445.54
		v-4.77c-0.69,0.48-2.14,0.76-4.29,1.04l-9.54,1.24c-5.95,0.76-8.99,3.39-8.99,7.67c0,4.7,3.67,7.67,9.61,7.67
		C867.72,458.4,873.25,453.43,873.25,445.54z"/>
	<path class="st1" d="M918.12,442.92c0,9.89-6.64,16.66-15.35,16.66c-6.08,0-11.48-3.46-13.97-9.68h-0.07v24.34h-1.24v-47.15h1.17
		l0.07,8.85h0.07c2.49-6.22,7.88-9.68,13.97-9.68C911.48,426.25,918.12,433.03,918.12,442.92z M916.88,442.92
		c0-9.4-6.36-15.49-14.1-15.49s-14.1,6.08-14.1,15.49c0,9.4,6.36,15.49,14.1,15.49S916.88,452.32,916.88,442.92z"/>
	<path class="st1" d="M927.38,417.06c0-1.04,0.9-1.94,1.94-1.94s1.94,0.9,1.94,1.94c0,1.04-0.9,1.94-1.94,1.94
		S927.38,418.1,927.38,417.06z M928.69,458.75v-31.67h1.24v31.67H928.69z"/>
	<path class="st1" d="M937.13,467.81v-5.25h26.96v5.25H937.13z"/>
</g>
<g>
</g>
<g>
</g>
<g>
</g>
<g>
</g>
<g>
</g>
<g>
</g>
</svg>
